# xmcd
#
# Track frame offsets:
#	150
#	16583
#	29749
#	45939
#	67988
#	84151
#	102798
#	121985
#	137608
#	153744
#	171392
#	191524
#	209361
#	226658
#	243172
#	259254
#
# Disc length: 3656 seconds
#
# Revision: 1
# Processed by: cddbd v1.4PL0 Copyright (c) Steve Scherf et al.
# Submitted via: EasyCDDAExtractor 6.0.0.1
#
DISCID=c70e4610
DTITLE=Shania Twain - Come On Over
DYEAR=1999
DGENRE=Country
TTITLE0=You're Still The One
TTITLE1=When
TTITLE2=From This Moment On
TTITLE3=Black Eyes, Blue Tears
TTITLE4=I Won't Leave You Lonely
TTITLE5=I'm Holdin On To Love (To Save My Life)
TTITLE6=Come On Over
TTITLE7=You'v Got A Way (Notthing Hill Remix)
TTITLE8=Whatever You Do! Don't!
TTITLE9=Man! I Feel Like A Woman
TTITLE10=Love Get's Me Everytime
TTITLE11=Don't Be Stupid (You Know I Love Yaou)
TTITLE12=That Don't Impress Me Much (UK Dance Mix)
TTITLE13=Honey. I'm Home
TTITLE14=If You Wanna Touch Her, Ask!
TTITLE15=Rock This Country!
EXTD=
EXTT0=
EXTT1=
EXTT2=
EXTT3=
EXTT4=
EXTT5=
EXTT6=
EXTT7=
EXTT8=
EXTT9=
EXTT10=
EXTT11=
EXTT12=
EXTT13=
EXTT14=
EXTT15=
PLAYORDER=
